<?xml version="1.0" encoding="utf-8"?>
<!-- Generator: Adobe Illustrator 16.0.0, SVG Export Plug-In . SVG Version: 6.00 Build 0)  -->
<!DOCTYPE svg PUBLIC "-//W3C//DTD SVG 1.1//EN" "http://www.w3.org/Graphics/SVG/1.1/DTD/svg11.dtd">
<svg version="1.1" id="Layer_1" xmlns="http://www.w3.org/2000/svg" xmlns:xlink="http://www.w3.org/1999/xlink" x="0px" y="0px"
	 width="100px" height="100px" viewBox="0 0 100 100" enable-background="new 0 0 100 100" xml:space="preserve">
<rect id="Rectangle-1_1_" x="0.832" y="0.832" fill="#D8D9D8" stroke="#010101" stroke-width="2" width="98" height="98">
</rect>
<g>
	
		<rect id="Rectangle-2_1_" x="0.958" y="79.427" fill="#D4D4D4" stroke="#010101" width="19.607" height="19.607">
	</rect>
	
		<rect id="Rectangle-2_4_" x="20.565" y="79.427" fill="#D4D4D4" stroke="#010101" width="19.606" height="19.607">
	</rect>
	
		<rect id="Rectangle-2_6_" x="40.171" y="79.427" fill="#60C4B3" stroke="#010101" width="19.607" height="19.607">
	</rect>
	
		<rect id="Rectangle-2_30_" x="59.778" y="79.427" fill="#60C4B3" stroke="#010101" width="19.606" height="19.607">
	</rect>
	
		<rect id="Rectangle-2_61_" x="1.092" y="1" fill="#D4D4D4" stroke="#010101" width="19.607" height="19.607">
	</rect>
	
		<rect id="Rectangle-2_60_" x="20.699" y="20.607" fill="#D4D4D4" stroke="#010101" width="19.606" height="19.607">
	</rect>
	
		<rect id="Rectangle-2_59_" x="1.092" y="20.607" fill="#D4D4D4" stroke="#010101" width="19.607" height="19.607">
	</rect>
	
		<rect id="Rectangle-2_58_" x="20.699" y="1" fill="#D4D4D4" stroke="#010101" width="19.606" height="19.607">
	</rect>
	
		<rect id="Rectangle-2_57_" x="40.306" y="1" fill="#60C4B3" stroke="#010101" width="19.606" height="19.607">
	</rect>
	
		<rect id="Rectangle-2_56_" x="59.912" y="20.607" fill="#60C4B3" stroke="#010101" width="19.607" height="19.607">
	</rect>
	
		<rect id="Rectangle-2_55_" x="40.306" y="20.607" fill="#60C4B3" stroke="#010101" width="19.606" height="19.607">
	</rect>
	
		<rect id="Rectangle-2_54_" x="1.092" y="40.214" fill="#60C4B3" stroke="#010101" width="19.607" height="19.606">
	</rect>
	
		<rect id="Rectangle-2_53_" x="20.699" y="59.82" fill="#60C4B3" stroke="#010101" width="19.606" height="19.606">
	</rect>
	
		<rect id="Rectangle-2_52_" x="1.092" y="59.82" fill="#60C4B3" stroke="#010101" width="19.607" height="19.606">
	</rect>
	
		<rect id="Rectangle-2_51_" x="20.699" y="40.214" fill="#60C4B3" stroke="#010101" width="19.606" height="19.606">
	</rect>
	
		<rect id="Rectangle-2_50_" x="59.912" y="59.82" fill="#D4D4D4" stroke="#010101" width="19.607" height="19.606">
	</rect>
	
		<rect id="Rectangle-2_49_" x="40.306" y="59.82" fill="#D4D4D4" stroke="#010101" width="19.606" height="19.606">
	</rect>
	
		<rect id="Rectangle-2_48_" x="59.912" y="40.214" fill="#D4D4D4" stroke="#010101" width="19.607" height="19.606">
	</rect>
	
		<rect id="Rectangle-2_33_" x="59.912" y="1" fill="#60C4B3" stroke="#010101" width="19.607" height="19.606">
	</rect>
	
		<rect id="Rectangle-2_62_" x="40.171" y="40.213" fill="#D4D4D4" stroke="#010101" width="19.607" height="19.606">
	</rect>
	
		<rect id="Rectangle-2_64_" x="79.385" y="79.427" fill="#D4D4D4" stroke="#010101" width="19.606" height="19.607">
	</rect>
	
		<rect id="Rectangle-2_34_" x="79.52" y="1" fill="#D4D4D4" stroke="#010101" width="19.606" height="19.607">
	</rect>
	
		<rect id="Rectangle-2_31_" x="79.52" y="20.607" fill="#D4D4D4" stroke="#010101" width="19.606" height="19.607">
	</rect>
	
		<rect id="Rectangle-2_25_" x="79.52" y="40.214" fill="#60C4B3" stroke="#010101" width="19.606" height="19.606">
	</rect>
	
		<rect id="Rectangle-2_23_" x="79.52" y="59.82" fill="#60C4B3" stroke="#010101" width="19.606" height="19.606">
	</rect>
</g>
<rect id="Rectangle-2_9_" x="36.75" display="none" fill="#D4D4D4" stroke="#010101" width="12.25" height="12.25">
</rect>
</svg>
