<?xml version="1.0" encoding="utf-8"?>
<!-- Generator: Adobe Illustrator 16.0.0, SVG Export Plug-In . SVG Version: 6.00 Build 0)  -->
<!DOCTYPE svg PUBLIC "-//W3C//DTD SVG 1.1//EN" "http://www.w3.org/Graphics/SVG/1.1/DTD/svg11.dtd">
<svg version="1.1" id="Layer_1" xmlns="http://www.w3.org/2000/svg" xmlns:xlink="http://www.w3.org/1999/xlink" x="0px" y="0px"
	 width="100px" height="100px" viewBox="0 0 100 100" enable-background="new 0 0 100 100" xml:space="preserve">
<rect id="Rectangle-1_1_" x="1" y="1" fill="#D8D9D8" stroke="#010101" stroke-width="2" width="98" height="98"/>
<rect id="Rectangle-2" x="1" y="1" fill="#D8D9D8" stroke="#979797" width="24.5" height="24.5"/>
<rect id="Rectangle-2_1_" x="1" y="1" fill="#60C4B3" stroke="#010101" width="24.5" height="24.5"/>
<rect id="Rectangle-2_2_" x="25.5" y="25.5" fill="#60C4B3" stroke="#010101" width="24.5" height="24.5"/>
<rect id="Rectangle-2_3_" x="1" y="25.5" fill="#D4D4D4" stroke="#010101" width="24.5" height="24.5"/>
<rect id="Rectangle-2_4_" x="25.5" y="1" fill="#D4D4D4" stroke="#010101" width="24.5" height="24.5"/>
<rect id="Rectangle-2_5_" x="50" y="1" fill="#D8D9D8" stroke="#979797" width="24.5" height="24.5"/>
<rect id="Rectangle-2_6_" x="50" y="1" fill="#60C4B3" stroke="#010101" width="24.5" height="24.5"/>
<rect id="Rectangle-2_7_" x="74.5" y="25.5" fill="#60C4B3" stroke="#010101" width="24.5" height="24.5"/>
<rect id="Rectangle-2_8_" x="50" y="25.5" fill="#D4D4D4" stroke="#010101" width="24.5" height="24.5"/>
<rect id="Rectangle-2_9_" x="74.5" y="1" fill="#D4D4D4" stroke="#010101" width="24.5" height="24.5"/>
<rect id="Rectangle-2_10_" x="1" y="50" fill="#D8D9D8" stroke="#979797" width="24.5" height="24.5"/>
<rect id="Rectangle-2_11_" x="1" y="50" fill="#60C4B3" stroke="#010101" width="24.5" height="24.5"/>
<rect id="Rectangle-2_12_" x="25.5" y="74.5" fill="#60C4B3" stroke="#010101" width="24.5" height="24.5"/>
<rect id="Rectangle-2_13_" x="1" y="74.5" fill="#D4D4D4" stroke="#010101" width="24.5" height="24.5"/>
<rect id="Rectangle-2_14_" x="25.5" y="50" fill="#D4D4D4" stroke="#010101" width="24.5" height="24.5"/>
<rect id="Rectangle-2_15_" x="50" y="50" fill="#D8D9D8" stroke="#979797" width="24.5" height="24.5"/>
<rect id="Rectangle-2_16_" x="50" y="50" fill="#60C4B3" stroke="#010101" width="24.5" height="24.5"/>
<rect id="Rectangle-2_17_" x="74.5" y="74.5" fill="#60C4B3" stroke="#010101" width="24.5" height="24.5"/>
<rect id="Rectangle-2_18_" x="50" y="74.5" fill="#D4D4D4" stroke="#010101" width="24.5" height="24.5"/>
<rect id="Rectangle-2_19_" x="74.5" y="50" fill="#D4D4D4" stroke="#010101" width="24.5" height="24.5"/>
</svg>
