<?xml version="1.0" encoding="utf-8"?>
<!-- Generator: Adobe Illustrator 16.0.0, SVG Export Plug-In . SVG Version: 6.00 Build 0)  -->
<!DOCTYPE svg PUBLIC "-//W3C//DTD SVG 1.1//EN" "http://www.w3.org/Graphics/SVG/1.1/DTD/svg11.dtd">
<svg version="1.1" id="Layer_1" xmlns="http://www.w3.org/2000/svg" xmlns:xlink="http://www.w3.org/1999/xlink" x="0px" y="0px"
	 width="100px" height="100px" viewBox="0 0 100 100" enable-background="new 0 0 100 100" xml:space="preserve">
<rect id="Rectangle-1_1_" x="0.832" y="0.832" fill="#D8D9D8" stroke="#010101" stroke-width="2" width="98" height="98">
</rect>
<g>
	
		<rect id="Rectangle-2_1_" x="0.958" y="79.399" fill="#60C4B3" stroke="#010101" width="19.6" height="19.601">
	</rect>
	
		<rect id="Rectangle-2_4_" x="20.558" y="79.399" fill="#D4D4D4" stroke="#010101" width="19.6" height="19.601">
	</rect>
	
		<rect id="Rectangle-2_6_" x="40.158" y="79.399" fill="#D4D4D4" stroke="#010101" width="19.6" height="19.601">
	</rect>
	
		<rect id="Rectangle-2_30_" x="59.758" y="79.4" fill="#D4D4D4" stroke="#010101" width="19.6" height="19.6">
	</rect>
	
		<rect id="Rectangle-2_61_" x="1.092" y="1" fill="#60C4B3" stroke="#010101" width="19.6" height="19.601">
	</rect>
	
		<rect id="Rectangle-2_60_" x="20.692" y="20.6" fill="#60C4B3" stroke="#010101" width="19.6" height="19.6">
	</rect>
	
		<rect id="Rectangle-2_59_" x="1.092" y="20.6" fill="#D4D4D4" stroke="#010101" width="19.6" height="19.6">
	</rect>
	
		<rect id="Rectangle-2_58_" x="20.692" y="1" fill="#D4D4D4" stroke="#010101" width="19.6" height="19.601">
	</rect>
	
		<rect id="Rectangle-2_57_" x="40.292" y="1" fill="#D4D4D4" stroke="#010101" width="19.6" height="19.601">
	</rect>
	
		<rect id="Rectangle-2_56_" x="59.893" y="20.6" fill="#60C4B3" stroke="#010101" width="19.6" height="19.6">
	</rect>
	
		<rect id="Rectangle-2_55_" x="40.292" y="20.6" fill="#60C4B3" stroke="#010101" width="19.6" height="19.6">
	</rect>
	
		<rect id="Rectangle-2_54_" x="1.092" y="40.2" fill="#60C4B3" stroke="#010101" width="19.6" height="19.6">
	</rect>
	
		<rect id="Rectangle-2_53_" x="20.692" y="59.8" fill="#60C4B3" stroke="#010101" width="19.6" height="19.601">
	</rect>
	
		<rect id="Rectangle-2_52_" x="1.092" y="59.8" fill="#D4D4D4" stroke="#010101" width="19.6" height="19.601">
	</rect>
	
		<rect id="Rectangle-2_51_" x="20.692" y="40.2" fill="#D4D4D4" stroke="#010101" width="19.6" height="19.6">
	</rect>
	
		<rect id="Rectangle-2_50_" x="59.893" y="59.8" fill="#60C4B3" stroke="#010101" width="19.6" height="19.601">
	</rect>
	
		<rect id="Rectangle-2_49_" x="40.292" y="59.8" fill="#60C4B3" stroke="#010101" width="19.6" height="19.601">
	</rect>
	
		<rect id="Rectangle-2_48_" x="59.893" y="40.2" fill="#D4D4D4" stroke="#010101" width="19.6" height="19.6">
	</rect>
	
		<rect id="Rectangle-2_33_" x="59.893" y="1" fill="#D4D4D4" stroke="#010101" width="19.6" height="19.6">
	</rect>
	
		<rect id="Rectangle-2_62_" x="40.158" y="40.199" fill="#D4D4D4" stroke="#010101" width="19.6" height="19.601">
	</rect>
	
		<rect id="Rectangle-2_64_" x="79.357" y="79.399" fill="#60C4B3" stroke="#010101" width="19.601" height="19.601">
	</rect>
	
		<rect id="Rectangle-2_34_" x="79.492" y="1" fill="#60C4B3" stroke="#010101" width="19.6" height="19.601">
	</rect>
	
		<rect id="Rectangle-2_31_" x="79.492" y="20.6" fill="#D4D4D4" stroke="#010101" width="19.6" height="19.6">
	</rect>
	
		<rect id="Rectangle-2_25_" x="79.492" y="40.2" fill="#60C4B3" stroke="#010101" width="19.6" height="19.6">
	</rect>
	
		<rect id="Rectangle-2_23_" x="79.492" y="59.8" fill="#D4D4D4" stroke="#010101" width="19.6" height="19.601">
	</rect>
</g>
<rect id="Rectangle-2_9_" x="36.75" display="none" fill="#D4D4D4" stroke="#010101" width="12.25" height="12.25">
</rect>
</svg>
