<?xml version="1.0" encoding="utf-8"?>
<!-- Generator: Adobe Illustrator 16.0.0, SVG Export Plug-In . SVG Version: 6.00 Build 0)  -->
<!DOCTYPE svg PUBLIC "-//W3C//DTD SVG 1.1//EN" "http://www.w3.org/Graphics/SVG/1.1/DTD/svg11.dtd">
<svg version="1.1" id="Layer_1" xmlns="http://www.w3.org/2000/svg" xmlns:xlink="http://www.w3.org/1999/xlink" x="0px" y="0px"
	 width="100px" height="100px" viewBox="0 0 100 100" enable-background="new 0 0 100 100" xml:space="preserve">
<rect id="Rectangle-1_1_" x="0.832" y="0.832"  fill="#D8D9D8" stroke="#010101" stroke-width="2" width="98" height="98">
</rect>
<rect id="Rectangle-2_1_" x="0.958" y="50"  fill="#60C4B3" stroke="#010101" width="12.25" height="12.25">
</rect>
<rect id="Rectangle-2_2_" x="13.208" y="62.25"  fill="#60C4B3" stroke="#010101" width="12.25" height="12.25">
</rect>
<rect id="Rectangle-2_3_" x="0.958" y="62.25"  fill="#D4D4D4" stroke="#010101" width="12.25" height="12.25">
</rect>
<rect id="Rectangle-2_4_" x="13.208" y="50"  fill="#D4D4D4" stroke="#010101" width="12.25" height="12.25">
</rect>
<rect id="Rectangle-2_6_" x="25.458" y="50"  fill="#D4D4D4" stroke="#010101" width="12.25" height="12.25">
</rect>
<rect id="Rectangle-2_7_" x="37.708" y="62.25"  fill="#D4D4D4" stroke="#010101" width="12.25" height="12.25">
</rect>
<rect id="Rectangle-2_8_" x="25.458" y="62.25"  fill="#D4D4D4" stroke="#010101" width="12.25" height="12.25">
</rect>
<rect id="Rectangle-2_11_" x="0.958" y="74.5"  fill="#D4D4D4" stroke="#010101" width="12.25" height="12.25">
</rect>
<rect id="Rectangle-2_12_" x="13.208" y="86.75"  fill="#D4D4D4" stroke="#010101" width="12.25" height="12.25">
</rect>
<rect id="Rectangle-2_13_" x="0.958" y="86.75"  fill="#D4D4D4" stroke="#010101" width="12.25" height="12.25">
</rect>
<rect id="Rectangle-2_14_" x="13.208" y="74.5"  fill="#D4D4D4" stroke="#010101" width="12.25" height="12.25">
</rect>
<rect id="Rectangle-2_17_" x="37.708" y="86.75"  fill="#60C4B3" stroke="#010101" width="12.25" height="12.25">
</rect>
<rect id="Rectangle-2_18_" x="25.458" y="86.75"  fill="#D4D4D4" stroke="#010101" width="12.25" height="12.25">
</rect>
<rect id="Rectangle-2_19_" x="37.708" y="74.5"  fill="#D4D4D4" stroke="#010101" width="12.25" height="12.25">
</rect>
<rect id="Rectangle-2_30_" x="37.708" y="50"  fill="#D4D4D4" stroke="#010101" width="12.25" height="12.25">
</rect>
<rect id="Rectangle-2_61_" x="1.042" y="1"  fill="#60C4B3" stroke="#010101" width="12.25" height="12.25">
</rect>
<rect id="Rectangle-2_60_" x="13.292" y="13.25"  fill="#60C4B3" stroke="#010101" width="12.25" height="12.25">
</rect>
<rect id="Rectangle-2_59_" x="1.042" y="13.25"  fill="#D4D4D4" stroke="#010101" width="12.25" height="12.25">
</rect>
<rect id="Rectangle-2_58_" x="13.292" y="1"  fill="#D4D4D4" stroke="#010101" width="12.25" height="12.25">
</rect>
<rect id="Rectangle-2_57_" x="25.542" y="1"  fill="#D4D4D4" stroke="#010101" width="12.25" height="12.25">
</rect>
<rect id="Rectangle-2_56_" x="37.792" y="13.25"  fill="#D4D4D4" stroke="#010101" width="12.25" height="12.25">
</rect>
<rect id="Rectangle-2_55_" x="25.542" y="13.25"  fill="#D4D4D4" stroke="#010101" width="12.25" height="12.25">
</rect>
<rect id="Rectangle-2_54_" x="1.042" y="25.5"  fill="#D4D4D4" stroke="#010101" width="12.25" height="12.25">
</rect>
<rect id="Rectangle-2_53_" x="13.292" y="37.75"  fill="#D4D4D4" stroke="#010101" width="12.25" height="12.25">
</rect>
<rect id="Rectangle-2_52_" x="1.042" y="37.75"  fill="#D4D4D4" stroke="#010101" width="12.25" height="12.25">
</rect>
<rect id="Rectangle-2_51_" x="13.292" y="25.5"  fill="#D4D4D4" stroke="#010101" width="12.25" height="12.25">
</rect>
<rect id="Rectangle-2_50_" x="37.792" y="37.75"  fill="#60C4B3" stroke="#010101" width="12.25" height="12.25">
</rect>
<rect id="Rectangle-2_49_" x="25.542" y="37.75"  fill="#D4D4D4" stroke="#010101" width="12.25" height="12.25">
</rect>
<rect id="Rectangle-2_48_" x="37.792" y="25.5"  fill="#D4D4D4" stroke="#010101" width="12.25" height="12.25">
</rect>
<rect id="Rectangle-2_33_" x="37.792" y="1"  fill="#D4D4D4" stroke="#010101" width="12.25" height="12.25">
</rect>
<rect id="Rectangle-2_62_" x="25.458" y="25.5"  fill="#60C4B3" stroke="#010101" width="12.25" height="12.25">
</rect>
<rect id="Rectangle-2_65_" x="25.458" y="74.5"  fill="#60C4B3" stroke="#010101" width="12.25" height="12.25">
</rect>
<rect id="Rectangle-2_64_" x="49.958" y="50"  fill="#60C4B3" stroke="#010101" width="12.25" height="12.25">
</rect>
<rect id="Rectangle-2_63_" x="62.208" y="62.25"  fill="#60C4B3" stroke="#010101" width="12.25" height="12.25">
</rect>
<rect id="Rectangle-2_47_" x="49.958" y="62.25"  fill="#D4D4D4" stroke="#010101" width="12.25" height="12.25">
</rect>
<rect id="Rectangle-2_46_" x="62.208" y="50"  fill="#D4D4D4" stroke="#010101" width="12.25" height="12.25">
</rect>
<rect id="Rectangle-2_45_" x="74.458" y="50"  fill="#D4D4D4" stroke="#010101" width="12.25" height="12.25">
</rect>
<rect id="Rectangle-2_44_" x="86.708" y="62.25"  fill="#D4D4D4" stroke="#010101" width="12.25" height="12.25">
</rect>
<rect id="Rectangle-2_43_" x="74.458" y="62.25"  fill="#D4D4D4" stroke="#010101" width="12.25" height="12.25">
</rect>
<rect id="Rectangle-2_42_" x="49.958" y="74.5"  fill="#D4D4D4" stroke="#010101" width="12.25" height="12.25">
</rect>
<rect id="Rectangle-2_41_" x="62.208" y="86.75"  fill="#D4D4D4" stroke="#010101" width="12.25" height="12.25">
</rect>
<rect id="Rectangle-2_40_" x="49.958" y="86.75"  fill="#D4D4D4" stroke="#010101" width="12.25" height="12.25">
</rect>
<rect id="Rectangle-2_39_" x="62.208" y="74.5"  fill="#D4D4D4" stroke="#010101" width="12.25" height="12.25">
</rect>
<rect id="Rectangle-2_38_" x="86.708" y="86.75"  fill="#60C4B3" stroke="#010101" width="12.25" height="12.25">
</rect>
<rect id="Rectangle-2_37_" x="74.458" y="86.75"  fill="#D4D4D4" stroke="#010101" width="12.25" height="12.25">
</rect>
<rect id="Rectangle-2_36_" x="86.708" y="74.5"  fill="#D4D4D4" stroke="#010101" width="12.25" height="12.25">
</rect>
<rect id="Rectangle-2_35_" x="86.708" y="50"  fill="#D4D4D4" stroke="#010101" width="12.25" height="12.25">
</rect>
<rect id="Rectangle-2_34_" x="50.042" y="1"  fill="#60C4B3" stroke="#010101" width="12.25" height="12.25">
</rect>
<rect id="Rectangle-2_32_" x="62.292" y="13.25"  fill="#60C4B3" stroke="#010101" width="12.25" height="12.25">
</rect>
<rect id="Rectangle-2_31_" x="50.042" y="13.25"  fill="#D4D4D4" stroke="#010101" width="12.25" height="12.25">
</rect>
<rect id="Rectangle-2_29_" x="62.292" y="1"  fill="#D4D4D4" stroke="#010101" width="12.25" height="12.25">
</rect>
<rect id="Rectangle-2_28_" x="74.542" y="1"  fill="#D4D4D4" stroke="#010101" width="12.25" height="12.25">
</rect>
<rect id="Rectangle-2_27_" x="86.792" y="13.25"  fill="#D4D4D4" stroke="#010101" width="12.25" height="12.25">
</rect>
<rect id="Rectangle-2_26_" x="74.542" y="13.25"  fill="#D4D4D4" stroke="#010101" width="12.25" height="12.25">
</rect>
<rect id="Rectangle-2_25_" x="50.042" y="25.5"  fill="#D4D4D4" stroke="#010101" width="12.25" height="12.25">
</rect>
<rect id="Rectangle-2_24_" x="62.292" y="37.75"  fill="#D4D4D4" stroke="#010101" width="12.25" height="12.25">
</rect>
<rect id="Rectangle-2_23_" x="50.042" y="37.75"  fill="#D4D4D4" stroke="#010101" width="12.25" height="12.25">
</rect>
<rect id="Rectangle-2_22_" x="62.292" y="25.5"  fill="#D4D4D4" stroke="#010101" width="12.25" height="12.25">
</rect>
<rect id="Rectangle-2_21_" x="86.792" y="37.75"  fill="#60C4B3" stroke="#010101" width="12.25" height="12.25">
</rect>
<rect id="Rectangle-2_20_" x="74.542" y="37.75"  fill="#D4D4D4" stroke="#010101" width="12.25" height="12.25">
</rect>
<rect id="Rectangle-2_16_" x="86.792" y="25.5"  fill="#D4D4D4" stroke="#010101" width="12.25" height="12.25">
</rect>
<rect id="Rectangle-2_15_" x="86.792" y="1"  fill="#D4D4D4" stroke="#010101" width="12.25" height="12.25">
</rect>
<rect id="Rectangle-2_10_" x="74.458" y="25.5"  fill="#60C4B3" stroke="#010101" width="12.25" height="12.25">
</rect>
<rect id="Rectangle-2_5_" x="74.458" y="74.5"  fill="#60C4B3" stroke="#010101" width="12.25" height="12.25">
</rect>
</svg>
